<?xml version="1.0" encoding="utf-8"?>
<!-- Generator: Adobe Illustrator 23.0.3, SVG Export Plug-In . SVG Version: 6.00 Build 0)  -->
<svg version="1.1" id="Layer_1" xmlns="http://www.w3.org/2000/svg" xmlns:xlink="http://www.w3.org/1999/xlink" x="0px" y="0px"
	 viewBox="0 0 850.39 850.39" style="enable-background:new 0 0 850.39 850.39;" xml:space="preserve">
<style type="text/css">
	
		.st0{fill:none;stroke:#000000;stroke-width:1.5;stroke-miterlimit:13;stroke-dasharray:9.54,9.54,9.54,9.54,9.54,9.54;stroke-dashoffset:19;}
	
		.st1{fill:none;stroke:#000000;stroke-width:1.5;stroke-miterlimit:13;stroke-dasharray:10.611,10.611,10.611,10.611,10.611,10.611;stroke-dashoffset:21;}
	.st2{fill:none;stroke:#000000;stroke-width:1.5;stroke-miterlimit:13;}
	.st3{fill:none;stroke:#000000;stroke-width:1.4;}
	.st4{fill:#DFEFED;}
	.st5{fill:#C9E5E1;}
	.st6{fill:#F5F1EC;}
	.st7{fill:#E8E2DA;}
	.st8{fill:#DAD0C2;}
	.st9{fill:#ABD6D0;}
	.st10{fill:#EEE9E3;}
	.st11{fill:#FFD700;}
	.st12{fill:#DAA520;}
	.st13{font-family:'GillSans';}
	.st14{font-size:12px;}
	.st15{letter-spacing:-1;}
	.st16{fill:#575756;}
	.st17{font-family:'GillSans-SemiBold';}
	.st18{font-size:9px;}
	.st19{fill:none;stroke:#000000;stroke-width:0.5;}
	.st20{fill:none;stroke:#575756;stroke-miterlimit:10;}
	.st21{font-size:11px;}
	.st22{fill:none;stroke:#9D9D9C;stroke-width:2;}
</style>
<line class="st0" x1="308.47" y1="435.49" x2="308.47" y2="640.6"/>
<line class="st1" x1="324.39" y1="650.14" x2="679.87" y2="650.14"/>
<line class="st0" x1="690.48" y1="635.83" x2="690.48" y2="430.72"/>
<line class="st1" x1="674.56" y1="421.18" x2="319.08" y2="421.18"/>
<path class="st2" d="M313.78,421.18h-5.31v4.77 M690.48,425.95v-4.77h-5.31 M685.17,650.14h5.31v-4.77 M308.47,645.37v4.77h5.31"/>
<line class="st3" x1="585.5" y1="373.95" x2="585.5" y2="589.38"/>
<line class="st3" x1="607.19" y1="156.61" x2="607.19" y2="421.23"/>
<line class="st3" x1="227.06" y1="589.11" x2="586.15" y2="589.11"/>
<line class="st3" x1="227.06" y1="373.92" x2="586.2" y2="373.92"/>
<line class="st3" x1="225.9" y1="266.37" x2="586.44" y2="266.37"/>
<line class="st3" x1="227.06" y1="481.87" x2="573.09" y2="481.87"/>
<line class="st3" x1="426.94" y1="157.31" x2="606.7" y2="157.31"/>
<line class="st3" x1="395.71" y1="177.91" x2="395.71" y2="569.5"/>
<line class="st3" x1="181.13" y1="487.8" x2="181.13" y2="583.71"/>
<line class="st3" x1="629.06" y1="292.95" x2="629.06" y2="454.53"/>
<rect x="351.92" y="463.8" class="st4" width="106.64" height="58.45"/>
<rect x="351.92" y="571.52" class="st4" width="106.64" height="58.45"/>
<rect x="346.25" y="458.13" class="st5" width="106.64" height="58.45"/>
<rect x="346.25" y="565.85" class="st5" width="106.64" height="58.45"/>
<rect x="139.32" y="463.8" class="st6" width="106.64" height="58.45"/>
<rect x="139.32" y="571.52" class="st6" width="106.64" height="58.45"/>
<rect x="133.65" y="458.13" class="st7" width="106.64" height="58.45"/>
<rect x="133.65" y="565.85" class="st7" width="106.64" height="58.45"/>
<rect x="127.98" y="452.47" class="st8" width="106.64" height="58.45"/>
<rect x="340.58" y="452.47" class="st9" width="106.64" height="58.45"/>
<rect x="553.18" y="452.47" class="st9" width="106.64" height="58.45"/>
<rect x="127.98" y="560.18" class="st8" width="106.64" height="58.45"/>
<rect x="340.58" y="560.18" class="st9" width="106.64" height="58.45"/>
<rect x="127.98" y="344.75" class="st10" width="106.64" height="58.45"/>
<rect x="340.58" y="344.75" class="st11" width="106.64" height="58.45"/>
<rect x="127.98" y="237.03" class="st8" width="106.64" height="58.45"/>
<rect x="340.58" y="237.03" class="st12" width="106.64" height="58.45"/>
<rect x="553.18" y="237.03" class="st12" width="106.64" height="58.45"/>
<rect x="340.58" y="129.32" class="st11" width="106.64" height="58.45"/>
<text transform="matrix(1 0 0 1 159.1221 478.6362)" class="st13 st14">MOUNT</text>
<text transform="matrix(1 0 0 1 203.4858 478.6362)" class="st13 st14"> </text>
<text transform="matrix(1 0 0 1 149.606 493.0356)"><tspan x="0" y="0" class="st13 st14">DIREC</tspan><tspan x="33.74" y="0" class="st13 st14">T</tspan><tspan x="40.22" y="0" class="st13 st14">O</tspan><tspan x="50.1" y="0" class="st13 st14 st15">R</tspan><tspan x="56.16" y="0" class="st13 st14">Y</tspan></text>
<text transform="matrix(1 0 0 1 386.0181 478.6362)" class="st13 st14">DB</text>
<text transform="matrix(1 0 0 1 357.4458 493.0356)"><tspan x="0" y="0" class="st13 st14">CON</tspan><tspan x="27.74" y="0" class="st13 st14 st15">T</tspan><tspan x="33.79" y="0" class="st13 st14">AINERS</tspan></text>
<text transform="matrix(1 0 0 1 583.874 478.6362)" class="st13 st14">REVERSE</text>
<text transform="matrix(1 0 0 1 587.8457 493.0356)"><tspan x="0" y="0" class="st13 st14">P</tspan><tspan x="6.12" y="0" class="st13 st14">R</tspan><tspan x="12.65" y="0" class="st13 st14">O</tspan><tspan x="21.56" y="0" class="st13 st14">XY</tspan></text>
<text transform="matrix(1 0 0 1 160.0337 586.3481)"><tspan x="0" y="0" class="st13 st14">SE</tspan><tspan x="11.5" y="0" class="st13 st14">R</tspan><tspan x="17.78" y="0" class="st13 st14">VICE</tspan></text>
<text transform="matrix(1 0 0 1 202.5605 586.3481)" class="st13 st14"> </text>
<text transform="matrix(1 0 0 1 143.3779 600.7475)"><tspan x="0" y="0" class="st13 st14">REPOSI</tspan><tspan x="37.74" y="0" class="st13 st14">T</tspan><tspan x="44.22" y="0" class="st13 st14">ORIES</tspan></text>
<text transform="matrix(1 0 0 1 372.626 586.3481)"><tspan x="0" y="0" class="st13 st14">SE</tspan><tspan x="11.5" y="0" class="st13 st14">R</tspan><tspan x="17.78" y="0" class="st13 st14">VICE</tspan></text>
<text transform="matrix(1 0 0 1 357.4341 600.7475)"><tspan x="0" y="0" class="st13 st14">CON</tspan><tspan x="27.74" y="0" class="st13 st14 st15">T</tspan><tspan x="33.79" y="0" class="st13 st14">AINERS</tspan></text>
<text transform="matrix(1 0 0 1 162.854 370.9116)" class="st13 st14">HOSTS</text>
<text transform="matrix(1 0 0 1 199.7178 370.9116)" class="st13 st14"> </text>
<text transform="matrix(1 0 0 1 171.0259 385.3115)" class="st13 st14">FILE</text>
<text transform="matrix(1 0 0 1 381.2539 370.9116)" class="st13 st14">WEB</text>
<text transform="matrix(1 0 0 1 406.5142 370.9116)" class="st13 st14"> </text>
<text transform="matrix(1 0 0 1 366.9141 385.3115)"><tspan x="0" y="0" class="st13 st14">B</tspan><tspan x="6.76" y="0" class="st13 st14">R</tspan><tspan x="13.28" y="0" class="st13 st14">O</tspan><tspan x="22.68" y="0" class="st13 st14">WSER</tspan></text>
<text transform="matrix(1 0 0 1 158.6538 263.1996)" class="st13 st14">CONFIG</text>
<text transform="matrix(1 0 0 1 203.9058 263.1996)" class="st13 st14"> </text>
<text transform="matrix(1 0 0 1 147.5898 277.5995)"><tspan x="0" y="0" class="st13 st14">REPOSI</tspan><tspan x="37.74" y="0" class="st13 st14">T</tspan><tspan x="44.22" y="0" class="st13 st14">O</tspan><tspan x="54.1" y="0" class="st13 st14 st15">R</tspan><tspan x="60.16" y="0" class="st13 st14">Y</tspan></text>
<text transform="matrix(1 0 0 1 369.6377 263.1996)" class="st13 st14">DOCKER</text>
<text transform="matrix(1 0 0 1 418.1299 263.1996)" class="st13 st14"> </text>
<text transform="matrix(1 0 0 1 366.2656 277.5995)" class="st13 st14">COMPOSE</text>
<text transform="matrix(1 0 0 1 582.2422 270.3998)" class="st13 st14">DOCKER</text>
<text transform="matrix(1 0 0 1 365.834 162.6879)" class="st13 st14">TERMINAL</text>
<text transform="matrix(1 0 0 1 119.5796 544.0405)" class="st16 st17 st18">NPM LINK</text>
<text transform="matrix(1 0 0 1 466.457 356.3906)" class="st16 st17 st18">HTTP</text>
<text transform="matrix(1 0 0 1 466.457 464.1118)" class="st16 st17 st18">HTTP</text>
<text transform="matrix(1 0 0 1 466.457 571.8325)" class="st16 st17 st18">HTTP</text>
<text transform="matrix(1 0 0 1 708.377 533.4203)" class="st16 st17 st18">DOCKER </text>
<text transform="matrix(1 0 0 1 708.377 544.2202)"><tspan x="0" y="0" class="st16 st17 st18">NET</tspan><tspan x="18.33" y="0" class="st16 st17 st18">W</tspan><tspan x="27.94" y="0" class="st16 st17 st18">ORK</tspan></text>
<text transform="matrix(1 0 0 1 254.1655 451.8266)" class="st16 st17 st18">DOCKER </text>
<text transform="matrix(1 0 0 1 254.3545 462.6264)"><tspan x="0" y="0" class="st16 st17 st18">V</tspan><tspan x="5.83" y="0" class="st16 st17 st18">O</tspan><tspan x="13.47" y="0" class="st16 st17 st18">L</tspan><tspan x="18.28" y="0" class="st16 st17 st18">UME</tspan></text>
<text transform="matrix(1 0 0 1 254.1655 559.5473)" class="st16 st17 st18">DOCKER </text>
<text transform="matrix(1 0 0 1 254.3545 570.3471)"><tspan x="0" y="0" class="st16 st17 st18">V</tspan><tspan x="5.83" y="0" class="st16 st17 st18">O</tspan><tspan x="13.47" y="0" class="st16 st17 st18">L</tspan><tspan x="18.28" y="0" class="st16 st17 st18">UME</tspan></text>
<line class="st19" x1="166.54" y1="541.19" x2="180.71" y2="541.19"/>
<line class="st19" x1="629.15" y1="366.97" x2="643.32" y2="366.97"/>
<line class="st19" x1="592.58" y1="329.13" x2="606.76" y2="329.13"/>
<line class="st19" x1="691.23" y1="536.06" x2="705.4" y2="536.06"/>
<line class="st19" x1="479.48" y1="374.23" x2="479.48" y2="360.06"/>
<line class="st19" x1="272.8" y1="480.81" x2="272.8" y2="466.64"/>
<line class="st19" x1="272.8" y1="588.53" x2="272.8" y2="574.36"/>
<line class="st19" x1="479.48" y1="481.95" x2="479.48" y2="467.77"/>
<line class="st19" x1="479.48" y1="589.66" x2="479.48" y2="575.49"/>
<text transform="matrix(1 0 0 1 557.7441 315.2846)"><tspan x="0" y="0" class="st16 st17 st18">CRE</tspan><tspan x="17.46" y="0" class="st16 st17 st18">A</tspan><tspan x="23.28" y="0" class="st16 st17 st18">TE </tspan></text>
<text transform="matrix(1 0 0 1 592.1602 315.2846)" class="st16 st17 st18"> </text>
<text transform="matrix(1 0 0 1 544.6582 326.0844)"><tspan x="0" y="0" class="st16 st17 st18">NET</tspan><tspan x="18.33" y="0" class="st16 st17 st18">W</tspan><tspan x="27.94" y="0" class="st16 st17 st18">ORK </tspan></text>
<text transform="matrix(1 0 0 1 592.1602 326.0844)" class="st16 st17 st18"> </text>
<text transform="matrix(1 0 0 1 549.2744 336.8847)"><tspan x="0" y="0" class="st16 st17 st18">AND </tspan><tspan x="23.2" y="0" class="st16 st17 st18">R</tspan><tspan x="28.82" y="0" class="st16 st17 st18">UN </tspan></text>
<text transform="matrix(1 0 0 1 592.1602 336.8847)" class="st16 st17 st18"> </text>
<text transform="matrix(1 0 0 1 533.624 347.6845)"><tspan x="0" y="0" class="st16 st17 st18">C</tspan><tspan x="6.45" y="0" class="st16 st17 st18">ON</tspan><tspan x="21.29" y="0" class="st16 st17 st18">T</tspan><tspan x="26.56" y="0" class="st16 st17 st18">AINE</tspan><tspan x="48.03" y="0" class="st16 st17 st18">R</tspan><tspan x="53.74" y="0" class="st16 st17 st18">S</tspan></text>
<line class="st20" x1="128.93" y1="140.3" x2="245.15" y2="140.3"/>
<text transform="matrix(1 0 0 1 128.9292 136.9633)" class="st16 st17 st21">KEY</text>
<text transform="matrix(1 0 0 1 148.9292 151.7983)"><tspan x="0" y="0" class="st16 st17 st18">DIREC</tspan><tspan x="27.01" y="0" class="st16 st17 st18">T</tspan><tspan x="32.64" y="0" class="st16 st17 st18">O</tspan><tspan x="40.29" y="0" class="st16 st17 st18">R</tspan><tspan x="45.55" y="0" class="st16 st17 st18">Y</tspan></text>
<text transform="matrix(1 0 0 1 148.9292 166.6303)" class="st16 st17 st18">FILE</text>
<text transform="matrix(1 0 0 1 148.9292 181.4623)"><tspan x="0" y="0" class="st16 st17 st18">APPLIC</tspan><tspan x="31.15" y="0" class="st16 st17 st18">A</tspan><tspan x="36.99" y="0" class="st16 st17 st18">TION (GUI)</tspan></text>
<text transform="matrix(1 0 0 1 148.9292 196.2939)"><tspan x="0" y="0" class="st16 st17 st18">APPLIC</tspan><tspan x="31.15" y="0" class="st16 st17 st18">A</tspan><tspan x="36.99" y="0" class="st16 st17 st18">TION (CLI)</tspan></text>
<text transform="matrix(1 0 0 1 148.9292 211.1259)"><tspan x="0" y="0" class="st16 st17 st18">DOCKER </tspan><tspan x="40.68" y="0" class="st16 st17 st18">C</tspan><tspan x="47.12" y="0" class="st16 st17 st18">ON</tspan><tspan x="61.97" y="0" class="st16 st17 st18">T</tspan><tspan x="67.24" y="0" class="st16 st17 st18">AINER</tspan></text>
<text transform="matrix(1 0 0 1 645.1621 353.686)"><tspan x="0" y="0" class="st16 st17 st18">MONI</tspan><tspan x="24.95" y="0" class="st16 st17 st18">T</tspan><tspan x="30.58" y="0" class="st16 st17 st18">OR </tspan></text>
<text transform="matrix(1 0 0 1 691.6826 353.686)" class="st16 st17 st18"> </text>
<text transform="matrix(1 0 0 1 645.1621 364.4858)"><tspan x="0" y="0" class="st16 st17 st18">NET</tspan><tspan x="18.33" y="0" class="st16 st17 st18">W</tspan><tspan x="27.94" y="0" class="st16 st17 st18">ORK </tspan></text>
<text transform="matrix(1 0 0 1 695.1611 364.4858)" class="st16 st17 st18"> </text>
<text transform="matrix(1 0 0 1 645.1621 375.2861)" class="st16 st17 st18">USING </text>
<text transform="matrix(1 0 0 1 675.9873 375.2861)" class="st16 st17 st18"> </text>
<text transform="matrix(1 0 0 1 645.1621 386.0859)"><tspan x="0" y="0" class="st16 st17 st18">DOCKER</tspan><tspan x="38.18" y="0" class="st16 st17 st18"> </tspan><tspan x="40.15" y="0" class="st16 st17 st18">API</tspan></text>
<rect x="128.93" y="144.48" class="st8" width="10.21" height="10.21"/>
<rect x="128.93" y="158.94" class="st10" width="10.21" height="10.21"/>
<rect x="128.93" y="173.4" class="st11" width="10.21" height="10.21"/>
<rect x="128.93" y="187.85" class="st12" width="10.21" height="10.21"/>
<rect x="128.93" y="202.31" class="st9" width="10.21" height="10.21"/>
<rect x="36" y="36" class="st22" width="747.78" height="675.5"/>
</svg>
